<svg xmlns="http://www.w3.org/2000/svg" version="1.1" xmlns:xlink="http://www.w3.org/1999/xlink" xmlns:svgjs="http://svgjs.dev/svgjs" width="100%" height="100%" viewBox="0 0 1000 600"><rect width="1000" height="600" x="0" y="0" fill="#ffb6c1"/><g><circle r="166.66666666666666" cx="476.01517740885413" cy="498.2374500551708" fill="#225500" transform="matrix(0.40407497511196744,0,0,0.40407497511196744,0,98.67471886443997)"/><path d="M408.0333932958287 470.1647023575503L408.0333932958287 470.1647023575503L406.8358441925835 485.0087412419618Q406.8358441925835 513.081520220361 410.4563414814644 534.442454224758Q414.04898879120003 555.7755382500098 419.0619850373427 555.7755382500098L419.0619850373427 555.7755382500098Q425.8852299279259 555.7755382500098 434.10097377577085 536.7261525146675Q442.3445676027611 517.6767667793251 442.3445676027611 498.62738104398284L442.3445676027611 498.62738104398284Q442.3445676027611 476.79299739411675 437.7214710646517 468.96715325430506L437.7214710646517 468.96715325430506Q435.9112224202113 466.1543053606361 432.0957752773138 462.3388582177386L432.0957752773138 462.3388582177386Q425.07758053271397 455.3206634731388 425.07758053271397 448.91516826973424L425.07758053271397 448.91516826973424Q425.07758053271397 445.90737052204855 426.8042792397187 443.9857219610272Q428.50312796757817 442.09192337915107 430.89822617406855 442.09192337915107L430.89822617406855 442.09192337915107Q437.1087715234565 442.09192337915107 441.3419683535326 446.9935197087128Q445.5473152044634 451.9229660174198 447.35756384890385 459.74881015723156L447.35756384890385 459.74881015723156Q450.75526130462276 473.5623998132692 450.75526130462276 489.01913823887594L450.75526130462276 489.01913823887594Q450.75526130462276 524.9177613570869 437.41512129405413 547.1698946941315Q424.07498128348544 569.4220280311761 411.2639908766763 569.4220280311761L411.2639908766763 569.4220280311761Q402.01779780045746 569.4220280311761 397.50610117892904 549.7599427546386Q392.99440455740057 530.1257074572463 392.99440455740057 499.85278012637326L392.99440455740057 499.85278012637326Q380.96321356665806 549.9827425878004 367.5395236186537 563.2114826817882L367.5395236186537 563.2114826817882Q360.9112285820872 569.4220280311761 353.3081842754374 569.4220280311761L353.3081842754374 569.4220280311761Q349.29778727852323 569.4220280311761 345.37094021904477 565.9129306588761Q341.47194313871154 562.4038332865764 339.6616944942711 556.5831876452216L339.6616944942711 556.5831876452216Q335.65129749735695 544.7469465084959 335.65129749735695 511.46622142993726L335.65129749735695 511.46622142993726Q327.24060379549525 510.26867232669207 320.61230875892875 507.06592472498977L320.61230875892875 507.06592472498977Q317.40956115722645 505.45062593456595 317.40956115722645 503.4454274361089Q317.40956115722645 501.4402289376518 321.41995815414066 501.4402289376518L321.41995815414066 501.4402289376518L335.84624735137356 504.4480266853374Q337.656495995814 469.77480264951697 348.88003759134466 450.9203667681913L348.88003759134466 450.9203667681913Q354.8956330867159 440.6994244218892 362.33157751849427 440.6994244218892L362.33157751849427 440.6994244218892Q375.7552674664987 440.6994244218892 375.7552674664987 460.7514094064601L375.7552674664987 460.7514094064601Q375.7552674664987 476.9879472481334 369.5447221171107 491.83198613254496Q363.33417676772285 506.6481750378112 350.88523608980177 510.65857203472535L350.88523608980177 510.65857203472535Q350.88523608980177 524.110111961875 352.50053488022553 534.7209540162105L352.50053488022553 534.7209540162105Q355.7032824819278 555.7755382500098 360.3263790200372 555.7755382500098L360.3263790200372 555.7755382500098Q364.1418261629347 555.7755382500098 370.35237151232263 544.2456468838816Q376.56291686171056 532.7157555177533 382.46711244050084 513.081520220361Q388.3991579984364 493.41943494382343 390.20940664287684 474.37004920848113L390.20940664287684 474.37004920848113Q390.4043564968935 471.5572013148122 395.6123025970529 467.96455400507654Q400.82024869721226 464.34405671619567 402.82544719566937 464.34405671619567L402.82544719566937 464.34405671619567Q408.0333932958287 464.34405671619567 408.0333932958287 470.1647023575503ZM350.88523608980177 504.4480266853374Q359.5187296248253 501.0503292296185 364.2253761003704 488.1000889270831Q368.93202257591554 475.17769860369305 368.93202257591554 467.65820423447894Q368.93202257591554 460.13870986526484 368.34717301386553 456.518212576384L368.34717301386553 456.518212576384Q366.92682407745843 450.3076672269961 364.53172587096805 450.3076672269961L364.53172587096805 450.3076672269961Q360.13142916602055 450.3076672269961 355.81468239850875 468.66080348370747Q351.49793563099695 487.01393974041883 350.88523608980177 504.4480266853374L350.88523608980177 504.4480266853374ZM469.41474733193184 486.0113404911903L469.41474733193184 486.0113404911903L471.4199458303889 495.42463344228054Q471.4199458303889 498.85018087714474 468.99699764475326 501.0503292296185Q466.6018994382629 503.25047758209223 463.3991518365606 503.25047758209223Q460.16855425571305 503.25047758209223 458.6646553818702 500.2426798344066Q457.16075650802736 497.234882086721 457.16075650802736 493.6143847978401L457.16075650802736 493.6143847978401Q457.16075650802736 482.808592889488 466.4904995216819 474.06369943788354Q475.82024253533643 465.34665596542425 487.6564836720622 465.34665596542425L487.6564836720622 465.34665596542425L488.8540327753075 465.34665596542425Q492.8644297722216 450.11271737297943 500.88522376605 450.11271737297943L500.88522376605 450.11271737297943Q503.2803219725404 450.11271737297943 503.2803219725404 456.518212576384L503.2803219725404 456.518212576384Q503.2803219725404 457.74361165877446 502.6954724104904 466.1543053606361L502.6954724104904 466.1543053606361Q505.703270158176 466.54420506866944 509.7136671550902 467.1569046098646L509.7136671550902 467.1569046098646Q519.1269601061805 468.54940356712655 525.4489053721493 468.54940356712655Q531.7708506381182 468.54940356712655 538.2877457581037 466.46065513123375Q544.8046408780892 464.34405671619567 547.004789230563 464.34405671619567L547.004789230563 464.34405671619567Q552.6304850179009 464.34405671619567 552.6304850179009 470.05330244096933Q552.6304850179009 475.79039814488823 546.6148895225297 478.6867959759929Q540.5992940271584 481.5831938070976 529.1529525984658 481.5831938070976Q517.7344611489186 481.5831938070976 501.27512347408333 476.37524770693824L501.27512347408333 476.37524770693824Q498.8800252675929 490.21668734212113 498.4901255595596 497.234882086721Q498.07237587238103 504.2530768313208 497.6824761643477 518.0945164665038L497.6824761643477 518.0945164665038Q506.09316986620934 517.6767667793251 520.9372087506208 517.6767667793251L520.9372087506208 517.6767667793251Q523.5551067902732 517.6767667793251 525.4489053721493 519.6819652777822Q527.3427039540254 521.6871637762393 527.3427039540254 523.9151621078584Q527.3427039540254 526.115310460332 525.9502049967635 527.507809417594Q524.5577060395017 528.928158354001 522.942407249078 528.928158354001L522.942407249078 528.928158354001L497.487526310331 527.507809417594Q496.67987691511917 547.1698946941315 496.1785772905049 554.1880894387314Q495.67727766589064 561.206284183331 492.2517302310264 567.2218796787024Q488.8540327753075 573.2374751740736 484.2309362371981 573.2374751740736L484.2309362371981 573.2374751740736Q481.64088817669096 573.2374751740736 478.5216905124244 570.5360271969855Q475.4303428273031 567.8067292407525 475.4303428273031 565.411631034262Q475.4303428273031 563.0165328277715 476.126592305934 561.7075838079454Q476.82284178456496 560.3986347881192 477.71404111721256 559.0896857682931Q478.6330904290054 557.780736748467 479.0229901370387 557.0009373324003L479.0229901370387 557.0009373324003Q481.44593832267435 551.7651412530956 483.4511368211314 528.3154588128059L483.4511368211314 528.3154588128059L475.6252926813197 529.3180580620344Q474.009993890896 529.3180580620344 473.0073946416674 528.2040588962249Q472.0047953924389 527.1179097095605 472.0047953924389 525.6140108357179Q472.0047953924389 524.110111961875 472.61749493363413 522.9125628586298Q473.2023444956841 521.6871637762393 475.0125931401245 520.9909142976085Q476.82284178456496 520.2946648189775 477.6304911797768 520.0997149649609L477.6304911797768 520.0997149649609Q480.8332387814791 519.292065569749 484.0359863831814 519.292065569749L484.0359863831814 519.292065569749Q484.45373607036 514.474019177623 485.1499855489909 498.43243118996617Q485.84623502762184 482.39084320230944 487.23873398488365 473.3674499592526L487.23873398488365 473.3674499592526Q486.0411848816385 473.17250010523594 483.64608667514807 473.17250010523594L483.64608667514807 473.17250010523594Q469.41474733193184 473.17250010523594 469.41474733193184 486.0113404911903ZM584.4908611600524 570.4246272804046L584.4908611600524 570.4246272804046Q567.8644236103457 570.4246272804046 561.8488281149745 555.9983380831718L561.8488281149745 555.9983380831718Q557.6434812640437 546.167295444903 555.220533078408 531.1283067064749L555.220533078408 531.1283067064749Q549.2049375830368 537.9515515970579 547.1997390845797 540.4580497201293Q545.1945405861226 542.9645478432006 543.6070917748441 542.9645478432006L543.6070917748441 542.9645478432006Q541.1841435892084 542.9645478432006 541.1841435892084 540.9593493447435L541.1841435892084 540.9593493447435Q541.1841435892084 539.7339502623531 542.3816926924536 538.536401159108L542.3816926924536 538.536401159108Q549.3998874370534 531.5182064145081 554.4128836831961 525.6975607731536L554.4128836831961 525.6975607731536Q552.8254348719177 514.2790693236062 552.8254348719177 501.3566790002161Q552.8254348719177 488.4064386976807 555.220533078408 476.9879472481334Q557.6434812640437 465.5416058194409 563.3527269888174 457.82716159621015Q569.061972713591 450.11271737297943 577.4726664154526 450.11271737297943L577.4726664154526 450.11271737297943Q587.7214587409 450.11271737297943 587.7214587409 467.54680431789797L587.7214587409 467.54680431789797Q587.7214587409 490.0217374881045 569.6746722547862 513.8891696155729L569.6746722547862 513.8891696155729Q571.067171212048 531.9359561016868 576.692866999386 547.7547442561815L576.692866999386 547.7547442561815Q578.8930153518597 554.1880894387314 581.5944633289478 557.2794371238526Q584.2959113060358 560.3986347881192 589.2253576147427 560.3986347881192Q594.1269539443045 560.3986347881192 600.2539493562567 553.686789814117Q606.3530947890638 546.9749448401149 611.5610408892231 536.2248528900532Q616.7968369685277 525.5026109191369 620.3894842782634 510.380072243273Q624.0099815671442 495.22968358826387 624.0099815671442 478.79819589257386Q624.0099815671442 462.3388582177386 621.5870333815085 455.62701324373637Q619.1919351750182 448.91516826973424 613.3712895336636 443.48442233641293L613.3712895336636 443.48442233641293Q605.7682452270137 437.07892713300834 605.7682452270137 430.8683817836204L605.7682452270137 430.8683817836204Q605.7682452270137 427.8605840359348 608.2747433500851 425.5490357668801Q610.7812414731566 423.2374874978254 613.3712895336636 423.2374874978254L613.3712895336636 423.2374874978254Q619.9995845702301 423.2374874978254 624.5112811917585 427.4428343487562Q629.022977813287 431.67603117883226 631.028176311744 438.88917577744877L631.028176311744 438.88917577744877Q634.6208236214796 451.5052163302413 634.6208236214796 466.54420506866944L634.6208236214796 466.54420506866944Q634.6208236214796 494.8397838802305 626.9063793982489 519.292065569749Q619.1919351750182 543.7443472592672 607.6620438088898 557.084487269836Q596.1321524427616 570.4246272804046 584.4908611600524 570.4246272804046ZM580.090564455105 470.1647023575503L580.090564455105 470.1647023575503Q580.090564455105 459.5260103240696 577.6954662486145 459.5260103240696L577.6954662486145 459.5260103240696Q576.0801674581908 459.5260103240696 574.0749689597337 464.34405671619567Q572.0697704612766 469.16210310832173 570.4544716708529 477.79559664334533Q568.8670228595743 486.40124019922365 568.8670228595743 494.6169840470687Q568.8670228595743 502.8605778740589 569.061972713591 506.25827532977786L569.061972713591 506.25827532977786Q580.090564455105 487.82158913563075 580.090564455105 470.1647023575503Z " fill="#dd88dd" transform="matrix(0.40407497511196744,0,0,0.40407497511196744,0,98.67471886443997)"/><path d="M812.6960635024532 468.1229388950186L812.6960635024532 468.1229388950186L811.5506187491687 482.3211261857302Q811.5506187491687 509.17248226272324 815.0135912590983 529.6040200713082Q818.4499255189517 550.0089196298169 823.2448105327005 550.0089196298169L823.2448105327005 550.0089196298169Q829.7711818014141 550.0089196298169 837.6294655739467 531.7883565775717Q845.5143875965558 513.5677935253264 845.5143875965558 495.34723047308097L845.5143875965558 495.34723047308097Q845.5143875965558 474.4628424131975 841.0924380838765 466.97749414173416L841.0924380838765 466.97749414173416Q839.3609518289115 464.2870308840196 835.7115115684472 460.63759062355524L835.7115115684472 460.63759062355524Q828.998672549199 453.924751604307 828.998672549199 447.79795408673914L828.998672549199 447.79795408673914Q828.998672549199 444.9210230784899 830.6502440539347 443.08298382321954Q832.2751773085939 441.27158281802554 834.5660668151628 441.27158281802554L834.5660668151628 441.27158281802554Q840.506396582196 441.27158281802554 844.5554105938061 445.9599148314688Q848.5777863553398 450.6748850949884 850.3092726103046 458.16023336645173L850.3092726103046 458.16023336645173Q853.5591391196232 471.37280540433716 853.5591391196232 486.1570341967292L853.5591391196232 486.1570341967292Q853.5591391196232 520.4937385451856 840.7994173330362 541.7777003562148Q828.0396955464493 563.0616621672441 815.7861005113135 563.0616621672441L815.7861005113135 563.0616621672441Q806.9422014859547 563.0616621672441 802.6268049735808 544.2550576133183Q798.3114084612068 525.475091309469 798.3114084612068 496.5193134764418L798.3114084612068 496.5193134764418Q786.8036844282099 544.4681636139294 773.9640478913938 557.1213324002108L773.9640478913938 557.1213324002108Q767.6241443732149 563.0616621672441 760.3519021023626 563.0616621672441L760.3519021023626 563.0616621672441Q756.5159940913636 563.0616621672441 752.7600008305936 559.7052426576199Q749.0306458199002 556.3488231479957 747.2991595649353 550.781428882032L747.2991595649353 550.781428882032Q743.4632515539363 539.4601725995697 743.4632515539363 507.6274637582931L743.4632515539363 507.6274637582931Q735.4185000308689 506.4820190050087 729.0785965126901 503.41862024622475L729.0785965126901 503.41862024622475Q726.0151977539061 501.8736017417946 726.0151977539061 499.9556477362951Q726.0151977539061 498.0376937307956 729.8511057649051 498.0376937307956L729.8511057649051 498.0376937307956L743.6497193044711 500.9146247390448Q745.3812055594358 467.7500033939492 756.1164203402178 449.71590809223864L756.1164203402178 449.71590809223864Q761.8702823567163 439.9396703142064 768.9826951271103 439.9396703142064L768.9826951271103 439.9396703142064Q781.8223316639264 439.9396703142064 781.8223316639264 459.1192103692015L781.8223316639264 459.1192103692015Q781.8223316639264 474.6493101637322 775.8820018968933 488.8474974544438Q769.9416721298601 503.019046495079 758.0343743457173 506.85495450607806L758.0343743457173 506.85495450607806Q758.0343743457173 519.7212292929705 759.5793928501475 529.8704025720721L759.5793928501475 529.8704025720721Q762.6427916089315 550.0089196298169 767.0647411216107 550.0089196298169L767.0647411216107 550.0089196298169Q770.7141813820751 550.0089196298169 776.6545111491083 538.9806840981947Q782.5948409161415 527.9524485665726 788.2421499323345 509.17248226272324Q793.9160971986039 490.36587770879754 795.6475834535687 472.1453146565523L795.6475834535687 472.1453146565523Q795.8340512041034 469.45485139883766 800.8154039683868 466.0185171389844Q805.7967567326702 462.55554462905474 807.7147107381697 462.55554462905474L807.7147107381697 462.55554462905474Q812.6960635024532 462.55554462905474 812.6960635024532 468.1229388950186ZM758.0343743457173 500.9146247390448Q766.2922318693957 497.66475822972626 770.7940961323043 485.2779719442086Q775.2959603952129 472.9178239087674 775.2959603952129 465.7254963881442Q775.2959603952129 458.53316886752106 774.7365571436088 455.0701963575914L774.7365571436088 455.0701963575914Q773.3780063897134 449.12986659055827 771.0871168831445 449.12986659055827L771.0871168831445 449.12986659055827Q766.8782733710761 449.12986659055827 762.7493446092369 466.68447339089397Q758.6204158473977 484.2390801912297 758.0343743457173 500.9146247390448L758.0343743457173 500.9146247390448ZM918.1835338049259 518.5757845396861L918.1835338049259 518.5757845396861Q925.8553498269239 516.0717890325062 928.8388338354787 514.2603880273123Q931.8223178440335 512.4223487720419 933.3406980983873 511.4633717692921L933.3406980983873 511.4633717692921L935.6582258550325 510.131459265473Q936.6172028577823 509.5454177637926 937.1766061093863 509.5454177637926L937.1766061093863 509.5454177637926Q938.7216246138164 509.5454177637926 938.7216246138164 511.2769040187574Q938.7216246138164 513.0083902737223 932.7812948467832 517.3237867860962Q926.8143268296737 521.63918329847 917.9970660543912 525.0755175583233L917.9970660543912 525.0755175583233Q916.6651535505721 541.1916588545344 907.8478927752897 551.1810026331777Q899.0039937499308 561.1437081617446 882.7013847031851 561.1437081617446L882.7013847031851 561.1437081617446Q870.8207251691188 561.1437081617446 864.4808216509398 551.6604911345526Q858.1675563828372 542.1506358572842 858.1675563828372 529.3909140706971Q858.1675563828372 516.6578305341866 865.7328194045298 505.33657425172424Q873.3247206762986 494.0153179692619 885.205380210365 494.0153179692619L885.205380210365 494.0153179692619Q890.5863067257942 490.1794099582629 897.965101996952 490.1794099582629Q905.3438972681098 490.1794099582629 911.6838007862887 498.0376937307956Q917.9970660543912 505.8959775033283 918.1835338049259 518.5757845396861ZM905.7168327691792 528.3520223177184L905.7168327691792 528.3520223177184L898.8175259993961 528.7249578187877Q890.0002652241137 528.7249578187877 883.8734677065459 523.4505843036641Q877.7200319389017 518.1762107885404 877.7200319389017 511.86294552043785Q877.7200319389017 505.52304200225893 879.8244536949359 500.9146247390448L879.8244536949359 500.9146247390448Q871.5932344213338 507.44099600775843 871.5932344213338 526.6205360627534L871.5932344213338 526.6205360627534Q871.5932344213338 535.8373705891817 875.4291424323328 544.1751428630891Q879.2650504433318 552.5129151369968 887.4962697169339 552.5129151369968Q895.7541272406122 552.5129151369968 900.3625445038264 545.5070553669084Q904.9709617670405 538.5011955968198 905.7168327691792 528.3520223177184ZM893.8361732351127 496.5193134764418L893.8361732351127 496.5193134764418Q890.7727744763289 496.5193134764418 889.0412882213641 499.2896914843855Q887.3098019663992 502.06006949232926 887.3098019663992 505.33657425172424L887.3098019663992 505.33657425172424Q887.3098019663992 512.4223487720419 892.2112399804535 516.8442982847213Q897.0860397444313 521.2396095473243 903.612411013145 521.2396095473243L903.612411013145 521.2396095473243L905.9299387697902 521.2396095473243Q905.5303650186445 511.86294552043785 902.7599870107007 504.1911294984398Q899.9629707526806 496.5193134764418 893.8361732351127 496.5193134764418ZM943.8894451286346 549.8224518792822L943.8894451286346 549.8224518792822L944.0759128791692 555.7627816463155Q944.0759128791692 561.1437081617446 941.0125141203853 561.1437081617446L941.0125141203853 561.1437081617446Q936.4040968571712 561.1437081617446 932.1952533451029 559.8917104081546Q927.9864098330345 558.6397126545646 927.9864098330345 556.4553761483014Q927.9864098330345 554.2444013919617 929.0253015860134 541.29821185484Q930.0908315890687 528.3520223177184 930.0908315890687 521.8256510490047L930.0908315890687 521.8256510490047L930.0908315890687 510.50439476654236Q930.0908315890687 501.31419849019056 932.0087855945682 499.39624448469107Q933.9267396000677 497.47829047919157 938.8015393640455 493.8288502187272Q943.7029773780998 490.1794099582629 945.9139521344396 490.1794099582629Q948.1249268907793 490.1794099582629 948.6843301423833 490.95191921047797Q949.2703716440637 491.7244284626931 949.2703716440637 493.8288502187272L949.2703716440637 493.8288502187272Q949.2703716440637 503.97802349782876 945.4344636330648 513.0083902737223L945.4344636330648 513.0083902737223Q944.475486630315 523.9300728050389 944.475486630315 528.1655545671836L944.475486630315 528.1655545671836Q954.6246599094166 509.17248226272324 958.6736739210266 503.23215249569006L958.6736739210266 503.23215249569006Q965.7594484413441 492.0973639637624 971.5133104578426 492.0973639637624L971.5133104578426 492.0973639637624Q975.162750718307 492.0973639637624 978.3327024773964 494.97429497201165Q981.4760159864096 497.8512259802609 981.4760159864096 502.06006949232926Q981.4760159864096 506.295551254474 981.3961012361805 510.0249062651675Q981.2895482358749 513.7808995259373 981.1030804853402 515.8853212819715Q980.9166127348055 517.9897430380056 980.9166127348055 518.5757845396861L980.9166127348055 518.5757845396861Q981.6891219870206 517.030766035256 987.4429840035191 509.94499151493835Q993.1968460200176 502.8325787445444 995.1947147757462 500.7281569885102Q997.2192217815514 498.623735232476 999.5101112881202 496.5193134764418L999.5101112881202 496.5193134764418Q1003.9320608007996 492.0973639637624 1007.4749480609585 492.0973639637624Q1011.0178353211172 492.0973639637624 1014.1877870802067 494.78782722147696Q1017.3577388392962 497.47829047919157 1017.3577388392962 501.50066624072525L1017.3577388392962 501.50066624072525Q1017.3577388392962 509.94499151493835 1015.5196995840258 526.3275153119132Q1013.7082985788318 542.7366773589646 1013.7082985788318 547.0520738713385Q1013.7082985788318 551.3674703837123 1014.8537433321162 551.3674703837123L1014.8537433321162 551.3674703837123Q1018.1302480915112 551.1810026331777 1023.8841101080097 543.2161658603395Q1029.6379721245082 535.2513290875013 1035.2852811407013 522.7846280517545Q1040.932590156894 510.3179270160077 1042.1845879104842 510.3179270160077Q1043.436585664074 510.3179270160077 1043.436585664074 511.86294552043785L1043.436585664074 511.86294552043785Q1043.436585664074 517.2172337857907 1037.8691913981102 528.9114255693223L1037.8691913981102 528.9114255693223Q1022.7120271046489 561.1437081617446 1012.3763860750126 561.1437081617446L1012.3763860750126 561.1437081617446Q1005.8500148062991 561.1437081617446 1002.0141067953 558.0803094029607L1002.0141067953 558.0803094029607Q1000.6555560414046 556.7217586490651 1000.6555560414046 551.0744496328721Q1000.6555560414046 545.4271406166793 1001.7210860444599 532.6674188300922Q1002.7866160475152 519.9076970435052 1002.7866160475152 513.5677935253264Q1002.7866160475152 507.25452825722374 1000.6555560414046 507.25452825722374L1000.6555560414046 507.25452825722374Q998.1781987843011 507.25452825722374 989.8404265103935 515.6988535314368Q981.4760159864096 524.1165405555736 980.9166127348055 527.5795130655033L980.9166127348055 527.5795130655033Q979.7711679815211 534.1058843342169 979.7711679815211 555.7627816463155L979.7711679815211 555.7627816463155Q979.7711679815211 561.1437081617446 976.8942369732719 561.1437081617446L976.8942369732719 561.1437081617446Q972.4722874605924 561.1437081617446 968.529826449288 559.8917104081546Q964.6140036880597 558.6397126545646 964.6140036880597 556.4553761483014Q964.6140036880597 554.2444013919617 965.7594484413441 537.5422185940702Q966.9048931946286 520.866674046255 966.9048931946286 514.0472820267012Q966.9048931946286 507.25452825722374 964.6939184382888 507.25452825722374Q962.5095819320256 507.25452825722374 954.0652566578125 520.3871855448801Q945.6209313835993 533.5198428325364 944.7685073811551 538.7143015974309Q943.8894451286346 543.882122112249 943.8894451286346 549.8224518792822ZM1055.3172451981404 561.1437081617446L1055.3172451981404 561.1437081617446Q1044.5820304173585 561.1437081617446 1038.268765149256 552.9924036383716Q1031.928861631077 544.8410991149988 1031.928861631077 534.4788198352862L1031.928861631077 534.4788198352862Q1031.928861631077 513.5677935253264 1040.7461224063595 502.8325787445444Q1049.563383181642 492.0973639637624 1063.575102721819 492.0973639637624L1063.575102721819 492.0973639637624Q1070.1014739905324 492.0973639637624 1074.3103175026008 495.6402512239212Q1078.5457992647457 499.18313848408 1078.5457992647457 505.33657425172424L1078.5457992647457 505.33657425172424Q1078.5457992647457 516.8442982847213 1068.8494762369426 524.5960290569485Q1059.1531532091394 532.3743980792519 1045.168071919039 532.7473335803213L1045.168071919039 532.7473335803213Q1045.940581171254 540.2326818517847 1050.2559776836279 545.693523117443Q1054.5713741960017 551.1810026331777 1060.3252362125004 551.1810026331777Q1066.0790982289986 551.1810026331777 1070.6608772421364 548.4905393754632Q1075.2692945053507 545.8000761177485 1079.1052025163497 540.8187233534651L1079.1052025163497 540.8187233534651Q1087.1765922894933 530.2699763232179 1092.9304543059918 516.8442982847213L1092.9304543059918 516.8442982847213Q1094.4488345603456 513.3813257747915 1095.3278968128661 511.86294552043785Q1096.1803208153106 510.3179270160077 1097.2458508183659 510.3179270160077Q1098.2847425713446 510.3179270160077 1098.2847425713446 511.86294552043785L1098.2847425713446 511.86294552043785Q1098.2847425713446 521.4527155479354 1086.590550787813 540.6322556029304L1086.590550787813 540.6322556029304Q1073.9373820015314 561.1437081617446 1055.3172451981404 561.1437081617446ZM1045.168071919039 528.1655545671836L1045.168071919039 528.1655545671836Q1056.4893282015014 526.2476005616841 1061.7637017166248 520.866674046255Q1067.0380752317485 515.4857475308258 1067.0380752317485 506.85495450607806Q1067.0380752317485 498.22416148133027 1061.4706809657848 498.22416148133027L1061.4706809657848 498.22416148133027Q1054.7578419465365 498.22416148133027 1050.1494246833224 507.547549008064Q1045.5410074201081 516.8442982847213 1045.168071919039 528.1655545671836ZM1103.0796275850935 549.8224518792822L1103.0796275850935 549.8224518792822L1103.266095335628 555.7627816463155Q1103.266095335628 561.1437081617446 1100.2026965768441 561.1437081617446L1100.2026965768441 561.1437081617446Q1095.59427931363 561.1437081617446 1091.3854358015617 559.8917104081546Q1087.1765922894933 558.6397126545646 1087.1765922894933 556.4553761483014Q1087.1765922894933 554.2444013919617 1088.2154840424723 541.29821185484Q1089.2810140455276 528.3520223177184 1089.2810140455276 521.8256510490047L1089.2810140455276 521.8256510490047L1089.2810140455276 510.50439476654236Q1089.2810140455276 501.31419849019056 1091.198968051027 499.39624448469107Q1093.1169220565266 497.47829047919157 1097.9917218205044 493.8288502187272Q1102.8931598345587 490.1794099582629 1105.1041345908984 490.1794099582629Q1107.3151093472381 490.1794099582629 1107.874512598842 490.95191921047797Q1108.4605541005226 491.7244284626931 1108.4605541005226 493.8288502187272L1108.4605541005226 493.8288502187272Q1108.4605541005226 503.97802349782876 1104.6246460895236 513.0083902737223L1104.6246460895236 513.0083902737223Q1103.665669086774 523.9300728050389 1103.665669086774 528.1655545671836L1103.665669086774 528.1655545671836Q1104.438178338989 526.9934715638228 1111.710420609841 515.1128120297565Q1119.00930113077 503.23215249569006 1124.0972068953588 497.66475822972626Q1129.1584744098714 492.0973639637624 1133.2074884214815 492.0973639637624Q1137.2298641830153 492.0973639637624 1140.3998159421046 494.78782722147696Q1143.5431294511177 497.47829047919157 1143.5431294511177 501.50066624072525L1143.5431294511177 501.50066624072525Q1143.5431294511177 509.94499151493835 1141.7317284459236 526.3275153119132Q1139.9203274407296 542.7366773589646 1139.9203274407296 547.0520738713385Q1139.9203274407296 551.3674703837123 1141.0657721940142 551.3674703837123L1141.0657721940142 551.3674703837123Q1144.3156387033328 551.1810026331777 1150.0695007198312 543.2161658603395Q1155.8233627363297 535.2513290875013 1161.497310002599 522.7846280517545Q1167.1446190187921 510.3179270160077 1168.396616772382 510.3179270160077Q1169.648614525972 510.3179270160077 1169.648614525972 511.86294552043785L1169.648614525972 511.86294552043785Q1169.648614525972 517.2172337857907 1164.0812202600082 528.9114255693223L1164.0812202600082 528.9114255693223Q1148.9240559665468 561.1437081617446 1138.5617766868343 561.1437081617446L1138.5617766868343 561.1437081617446Q1131.0764284153709 561.1437081617446 1127.2405204043719 558.0803094029607L1127.2405204043719 558.0803094029607Q1125.9086079005529 556.7217586490651 1125.9086079005529 551.0744496328721Q1125.9086079005529 545.4271406166793 1126.9741379036082 532.6674188300922Q1128.013029656587 519.9076970435052 1128.013029656587 513.5677935253264Q1128.013029656587 507.25452825722374 1125.8020549002472 507.25452825722374Q1123.617718393984 507.25452825722374 1114.214416117021 520.3871855448801Q1104.8111138400582 533.5198428325364 1104.225072338378 537.1692830930008L1104.225072338378 537.1692830930008Q1103.0796275850935 543.882122112249 1103.0796275850935 549.8224518792822ZM1210.6715196436003 483.2801031884799L1210.6715196436003 483.2801031884799L1212.5894736491 492.2838317142971Q1212.5894736491 495.5603364736921 1210.2985841425311 497.66475822972626Q1208.0076946359623 499.76917998576045 1204.9176576271018 499.76917998576045Q1201.8542588683179 499.76917998576045 1200.4157933641932 496.89224897751114Q1198.9773278600687 494.0153179692619 1198.9773278600687 490.55234545933223L1198.9773278600687 490.55234545933223Q1198.9773278600687 480.216704429696 1207.9011416356566 471.8522939057121Q1216.8249554112444 463.5145216318045 1228.1462116937068 463.5145216318045L1228.1462116937068 463.5145216318045L1229.2916564469915 463.5145216318045Q1233.1275644579905 448.9433988400236 1240.7993804799885 448.9433988400236L1240.7993804799885 448.9433988400236Q1243.0902699865574 448.9433988400236 1243.0902699865574 455.0701963575914L1243.0902699865574 455.0701963575914Q1243.0902699865574 456.2422793609522 1242.5308667349532 464.2870308840196L1242.5308667349532 464.2870308840196Q1245.4077977432025 464.6599663850889 1249.2437057542015 465.24600788676935L1249.2437057542015 465.24600788676935Q1258.2474342800185 466.5779203905884 1264.2943170473573 466.5779203905884Q1270.3411998146962 466.5779203905884 1276.5745503325693 464.5800516348598Q1282.8079008504428 462.55554462905474 1284.9123226064771 462.55554462905474L1284.9123226064771 462.55554462905474Q1290.2666108718297 462.55554462905474 1290.2666108718297 468.01638589471304Q1290.2666108718297 473.50386541044776 1284.5127488553312 476.2742434183915Q1278.7588868388327 479.0446214263352 1267.837204307516 479.0446214263352Q1256.9155217761995 479.0446214263352 1241.1723159810576 474.06326866205177L1241.1723159810576 474.06326866205177Q1238.8814264744888 487.3024789500136 1238.481852723343 494.0153179692619Q1238.1089172222737 500.7281569885102 1237.7359817212043 513.967367276472L1237.7359817212043 513.967367276472Q1245.7807332442717 513.5677935253264 1259.9789205349834 513.5677935253264L1259.9789205349834 513.5677935253264Q1262.456277792087 513.5677935253264 1264.2943170473573 515.4857475308258Q1266.1057180525513 517.4037015363253 1266.1057180525513 519.534761542436Q1266.1057180525513 521.63918329847 1264.773805548732 522.9710958022891Q1263.4152547948368 524.3296465561846 1261.8968745404827 524.3296465561846L1261.8968745404827 524.3296465561846L1237.5228757205934 522.9710958022891Q1236.7770047184547 541.7777003562148 1236.2975162170799 548.4905393754632Q1235.8180277157048 555.2033783947113 1232.54152295631 560.9572404112098Q1229.2916564469915 566.7111024277084 1224.869706934312 566.7111024277084L1224.869706934312 566.7111024277084Q1222.3923496772084 566.7111024277084 1219.4088656686536 564.1271921702994Q1216.4253816600988 561.516643662814 1216.4253816600988 559.2257541562451Q1216.4253816600988 556.9348646496762 1217.1179761620847 555.6828668960862Q1217.7839324139943 554.4308691424962 1218.6363564164385 553.1788713889064Q1219.515418668959 551.9268736353164 1219.8883541700286 551.1810026331777L1219.8883541700286 551.1810026331777Q1222.1792436765973 546.1730116188178 1224.097197682097 523.7436050545042L1224.097197682097 523.7436050545042L1216.6384876607099 524.702582057254Q1215.0934691562798 524.702582057254 1214.1344921535301 523.6370520541986Q1213.1755151507803 522.5981603012199 1213.1755151507803 521.1596947970952Q1213.1755151507803 519.7212292929705 1213.7615566524605 518.5757845396861Q1214.3209599040647 517.4037015363253 1216.0524461590294 516.7377452844157Q1217.7839324139943 516.0717890325062 1218.5564416662094 515.8853212819715L1218.5564416662094 515.8853212819715Q1221.6198404249933 515.1128120297565 1224.6832391837772 515.1128120297565L1224.6832391837772 515.1128120297565Q1225.0561746848466 510.50439476654236 1225.7487691868325 495.16076272254634Q1226.4147254387422 479.8171306785503 1227.7466379425612 471.1863376538025L1227.7466379425612 471.1863376538025Q1226.6011931892767 470.99986990326784 1224.3103036827079 470.99986990326784L1224.3103036827079 470.99986990326784Q1210.6715196436003 470.99986990326784 1210.6715196436003 483.2801031884799ZM1292.584138628475 510.131459265473L1292.584138628475 510.131459265473L1303.1328856587224 508.9860145121886Q1304.651265913076 508.9860145121886 1305.8233489164368 510.69086251707705Q1306.9687936697214 512.4223487720419 1306.9687936697214 514.3403027775414Q1306.9687936697214 516.2582567830409 1305.7167959161313 527.3930453149685Q1304.4647981625415 538.5011955968198 1304.4647981625415 544.9476521153042Q1304.4647981625415 551.3674703837123 1305.610242915826 551.3674703837123L1305.610242915826 551.3674703837123Q1308.8867476752207 551.1810026331777 1314.6406096917194 543.2161658603395Q1320.3944717082177 535.2513290875013 1326.0417807244107 522.7846280517545Q1331.71572799068 510.3179270160077 1332.9410874941937 510.3179270160077Q1334.1930852477838 510.3179270160077 1334.1930852477838 511.86294552043785L1334.1930852477838 511.86294552043785Q1334.1930852477838 517.2172337857907 1328.6256909818198 528.9114255693223L1328.6256909818198 528.9114255693223Q1313.4951649384348 561.1437081617446 1303.1328856587224 561.1437081617446L1303.1328856587224 561.1437081617446Q1295.647537387259 561.1437081617446 1291.81162937626 558.0803094029607L1291.81162937626 558.0803094029607Q1290.4797168724408 556.7217586490651 1290.4797168724408 541.3781266050692Q1290.4797168724408 526.0344945610731 1293.7295833817593 515.1128120297565L1293.7295833817593 515.1128120297565Q1282.5947948498317 515.1128120297565 1278.1994835872288 508.02703750943886L1278.1994835872288 508.02703750943886Q1275.8819558305834 504.3775972489745 1275.8819558305834 499.76917998576045Q1275.8819558305834 495.16076272254634 1277.7999098360829 491.7244284626931Q1279.7178638415826 488.26145595276336 1283.2873893518176 488.26145595276336Q1286.8302766119764 488.26145595276336 1289.7871223704549 491.99081096345685Q1292.7706063790097 495.74680422422676 1292.7706063790097 500.3552214874408Q1292.7706063790097 504.9370005005785 1290.0801431212951 509.5454177637926L1290.0801431212951 509.5454177637926Q1290.8526523735102 510.131459265473 1292.584138628475 510.131459265473ZM1384.8323986429857 518.5757845396861L1384.8323986429857 518.5757845396861Q1392.504214664984 516.0717890325062 1395.4876986735387 514.2603880273123Q1398.444544432017 512.4223487720419 1399.989562936447 511.4633717692921L1399.989562936447 511.4633717692921L1402.280452443016 510.131459265473Q1403.2394294457658 509.5454177637926 1403.825470947446 509.5454177637926L1403.825470947446 509.5454177637926Q1405.3438512018 509.5454177637926 1405.3438512018 511.2769040187574Q1405.3438512018 513.0083902737223 1399.4035214347666 517.3237867860962Q1393.4631916677338 521.63918329847 1384.6459308924511 525.0755175583233L1384.6459308924511 525.0755175583233Q1383.2873801385556 541.1916588545344 1374.4701193632734 551.1810026331777Q1365.6528585879907 561.1437081617446 1349.3502495412451 561.1437081617446L1349.3502495412451 561.1437081617446Q1337.4695900071786 561.1437081617446 1331.1296864889996 551.6604911345526Q1324.7897829708209 542.1506358572842 1324.7897829708209 529.3909140706971Q1324.7897829708209 516.6578305341866 1332.3816842425897 505.33657425172424Q1339.9469472642822 494.0153179692619 1351.854245048425 494.0153179692619L1351.854245048425 494.0153179692619Q1357.2085333137777 490.1794099582629 1364.5873285849354 490.1794099582629Q1371.9927621061697 490.1794099582629 1378.3060273742724 498.0376937307956Q1384.6459308924511 505.8959775033283 1384.8323986429857 518.5757845396861ZM1372.365697607239 528.3520223177184L1372.365697607239 528.3520223177184L1365.4663908374562 528.7249578187877Q1356.6491300621738 528.7249578187877 1350.4956942945294 523.4505843036641Q1344.3688967769615 518.1762107885404 1344.3688967769615 511.86294552043785Q1344.3688967769615 505.52304200225893 1346.4733185329958 500.9146247390448L1346.4733185329958 500.9146247390448Q1338.2154610093173 507.44099600775843 1338.2154610093173 526.6205360627534L1338.2154610093173 526.6205360627534Q1338.2154610093173 535.8373705891817 1342.0513690203163 544.1751428630891Q1345.8872770313153 552.5129151369968 1354.1451345549938 552.5129151369968Q1362.4029920786722 552.5129151369968 1366.98477109181 545.5070553669084Q1371.593188355024 538.5011955968198 1372.365697607239 528.3520223177184ZM1360.4850380731727 496.5193134764418L1360.4850380731727 496.5193134764418Q1357.3950010643125 496.5193134764418 1355.690153059424 499.2896914843855Q1353.9586668044592 502.06006949232926 1353.9586668044592 505.33657425172424L1353.9586668044592 505.33657425172424Q1353.9586668044592 512.4223487720419 1358.8334665684372 516.8442982847213Q1363.7349045824915 521.2396095473243 1370.2612758512048 521.2396095473243L1370.2612758512048 521.2396095473243L1372.5521653577737 521.2396095473243Q1372.1792298567045 511.86294552043785 1369.3822135986843 504.1911294984398Q1366.6118355907404 496.5193134764418 1360.4850380731727 496.5193134764418ZM1410.5383099666944 549.8224518792822L1410.5383099666944 549.8224518792822L1410.7247777172292 555.7627816463155Q1410.7247777172292 561.1437081617446 1407.661378958445 561.1437081617446L1407.661378958445 561.1437081617446Q1403.052961695231 561.1437081617446 1398.844118183163 559.8917104081546Q1394.608636421018 558.6397126545646 1394.608636421018 556.4553761483014Q1394.608636421018 554.2444013919617 1395.6741664240733 541.29821185484Q1396.7130581770523 528.3520223177184 1396.7130581770523 521.8256510490047L1396.7130581770523 521.8256510490047L1396.7130581770523 510.50439476654236Q1396.7130581770523 501.31419849019056 1398.6310121825516 499.39624448469107Q1400.5489661880513 497.47829047919157 1405.4504042021056 493.8288502187272Q1410.3518422161599 490.1794099582629 1412.5361787224233 490.1794099582629Q1414.747153478763 490.1794099582629 1415.3331949804433 490.95191921047797Q1415.8925982320472 491.7244284626931 1415.8925982320472 493.8288502187272L1415.8925982320472 493.8288502187272Q1415.8925982320472 503.97802349782876 1412.0566902210483 513.0083902737223L1412.0566902210483 513.0083902737223Q1411.0977132182986 523.9300728050389 1411.0977132182986 528.1655545671836L1411.0977132182986 528.1655545671836Q1421.2735247474764 509.17248226272324 1425.2959005090102 503.23215249569006L1425.2959005090102 503.23215249569006Q1432.4083132794042 492.0973639637624 1438.1621752959027 492.0973639637624L1438.1621752959027 492.0973639637624Q1441.7849773062906 492.0973639637624 1444.9549290653802 494.97429497201165Q1448.1248808244695 497.8512259802609 1448.1248808244695 502.06006949232926Q1448.1248808244695 506.295551254474 1448.018327824164 510.0249062651675Q1447.9384130739347 513.7808995259373 1447.7519453234002 515.8853212819715Q1447.5388393227893 517.9897430380056 1447.5388393227893 518.5757845396861L1447.5388393227893 518.5757845396861Q1448.311348575004 517.030766035256 1454.0652105915026 509.94499151493835Q1459.8190726080013 502.8325787445444 1461.8435796138062 500.7281569885102Q1463.8414483695349 498.623735232476 1466.15897612618 496.5193134764418L1466.15897612618 496.5193134764418Q1470.5542873887832 492.0973639637624 1474.1238128990183 492.0973639637624Q1477.666700159177 492.0973639637624 1480.8366519182666 494.78782722147696Q1483.97996542728 497.47829047919157 1483.97996542728 501.50066624072525L1483.97996542728 501.50066624072525Q1483.97996542728 509.94499151493835 1482.1685644220859 526.3275153119132Q1480.3571634168918 542.7366773589646 1480.3571634168918 547.0520738713385Q1480.3571634168918 551.3674703837123 1481.5026081701762 551.3674703837123L1481.5026081701762 551.3674703837123Q1484.7524746794948 551.1810026331777 1490.5063366959932 543.2161658603395Q1496.2601987124917 535.2513290875013 1501.934145978761 522.7846280517545Q1507.5814549949541 510.3179270160077 1508.8334527485442 510.3179270160077Q1510.085450502134 510.3179270160077 1510.085450502134 511.86294552043785L1510.085450502134 511.86294552043785Q1510.085450502134 517.2172337857907 1504.5180562361704 528.9114255693223L1504.5180562361704 528.9114255693223Q1489.360891942709 561.1437081617446 1478.9986126629963 561.1437081617446L1478.9986126629963 561.1437081617446Q1472.4722413942827 561.1437081617446 1468.6363333832835 558.0803094029607L1468.6363333832835 558.0803094029607Q1467.3044208794645 556.7217586490651 1467.3044208794645 551.0744496328721Q1467.3044208794645 545.4271406166793 1468.36995088252 532.6674188300922Q1469.4088426354988 519.9076970435052 1469.4088426354988 513.5677935253264Q1469.4088426354988 507.25452825722374 1467.3044208794645 507.25452825722374L1467.3044208794645 507.25452825722374Q1464.8004253722845 507.25452825722374 1456.4626530983771 515.6988535314368Q1448.1248808244695 524.1165405555736 1447.5388393227893 527.5795130655033L1447.5388393227893 527.5795130655033Q1446.3933945695046 534.1058843342169 1446.3933945695046 555.7627816463155L1446.3933945695046 555.7627816463155Q1446.3933945695046 561.1437081617446 1443.5164635612555 561.1437081617446L1443.5164635612555 561.1437081617446Q1439.1211522986523 561.1437081617446 1435.1786912873479 559.8917104081546Q1431.2362302760434 558.6397126545646 1431.2362302760434 556.4553761483014Q1431.2362302760434 554.2444013919617 1432.4083132794042 537.5422185940702Q1433.5537580326886 520.866674046255 1433.5537580326886 514.0472820267012Q1433.5537580326886 507.25452825722374 1431.3427832763489 507.25452825722374Q1429.1318085200091 507.25452825722374 1420.6874832457959 520.3871855448801Q1412.2697962216594 533.5198428325364 1411.3907339691389 538.7143015974309Q1410.5383099666944 543.882122112249 1410.5383099666944 549.8224518792822ZM1581.6091519572199 564.0206391699937L1581.6091519572199 564.0206391699937Q1565.7061166616197 564.0206391699937 1559.9522546451212 550.2220256304279L1559.9522546451212 550.2220256304279Q1555.9032406335111 540.8187233534651 1553.6123511269423 526.4340683122189L1553.6123511269423 526.4340683122189Q1547.8584891104435 532.9604395809324 1545.9405351049443 535.3578820878067Q1544.0225810994446 537.7553245946812 1542.4775625950144 537.7553245946812L1542.4775625950144 537.7553245946812Q1540.1866730884456 537.7553245946812 1540.1866730884456 535.8373705891817L1540.1866730884456 535.8373705891817Q1540.1866730884456 534.6652875858208 1541.3321178417302 533.5198428325364L1541.3321178417302 533.5198428325364Q1548.0449568609783 526.8070038132881 1552.8398418747272 521.2396095473243L1552.8398418747272 521.2396095473243Q1551.3214616203734 510.3179270160077 1551.3214616203734 497.95777898056645Q1551.3214616203734 485.5709926950488 1553.6123511269423 474.6493101637322Q1555.9032406335111 463.7009893823392 1561.390720149246 456.3221941111814Q1566.851561414904 448.9433988400236 1574.8963129379715 448.9433988400236L1574.8963129379715 448.9433988400236Q1584.6725507160036 448.9433988400236 1584.6725507160036 465.61894338783867L1584.6725507160036 465.61894338783867Q1584.6725507160036 487.116011199479 1567.410964666508 509.94499151493835L1567.410964666508 509.94499151493835Q1568.7695154204036 527.2065775644339 1574.1238036857565 542.3371036078188L1574.1238036857565 542.3371036078188Q1576.254863691867 548.4905393754632 1578.838773949276 551.4473851339415Q1581.422684206685 554.4308691424962 1586.1110162201282 554.4308691424962Q1590.825986483648 554.4308691424962 1596.6597632503756 548.0110508740881Q1602.5201782671795 541.5912326056801 1607.5015310314632 531.3088680761966Q1612.4828837957464 521.0531417967896 1615.9458563056762 506.58857200531423Q1619.4088288156056 492.0973639637624 1619.4088288156056 476.380796418697Q1619.4088288156056 460.63759062355524 1617.0913010589604 454.2177723551472Q1614.8004115523916 447.79795408673914 1609.2330172864279 442.6034953218446L1609.2330172864279 442.6034953218446Q1601.934136765499 436.47669780427674 1601.934136765499 430.53636803724356L1601.934136765499 430.53636803724356Q1601.934136765499 427.6594370289943 1604.3315792723736 425.44846227265464Q1606.7290217792481 423.23748751631496 1609.2330172864279 423.23748751631496L1609.2330172864279 423.23748751631496Q1615.5729208046068 423.23748751631496 1619.8883173169806 427.2598632778486Q1624.2037138293547 431.3088772894586 1626.121667834854 438.2081840592416L1626.121667834854 438.2081840592416Q1629.5580020947075 450.27531134384265 1629.5580020947075 464.6599663850889L1629.5580020947075 464.6599663850889Q1629.5580020947075 491.7244284626931 1622.1792068235495 515.1128120297565Q1614.8004115523916 538.5011955968198 1603.7721760207694 551.2609173834069Q1592.7439404891475 564.0206391699937 1581.6091519572199 564.0206391699937ZM1577.4003084451515 468.1229388950186L1577.4003084451515 468.1229388950186Q1577.4003084451515 457.9471273658407 1575.082780688506 457.9471273658407L1575.082780688506 457.9471273658407Q1573.5644004341523 457.9471273658407 1571.646446428653 462.55554462905474Q1569.7284924231533 467.16396189226884 1568.1834739187232 475.42181941594725Q1566.6650936643694 483.6530386895493 1566.6650936643694 491.511322462082Q1566.6650936643694 499.39624448469107 1566.851561414904 502.6461109940097L1566.851561414904 502.6461109940097Q1577.4003084451515 485.0115894434448 1577.4003084451515 468.1229388950186ZM1657.36833517445 561.1437081617446L1657.36833517445 561.1437081617446Q1646.6331203936682 561.1437081617446 1640.2932168754894 552.9924036383716Q1633.979951607387 544.8410991149988 1633.979951607387 534.4788198352862L1633.979951607387 534.4788198352862Q1633.979951607387 513.5677935253264 1642.7972123826692 502.8325787445444Q1651.6144731579518 492.0973639637624 1665.6261926981285 492.0973639637624L1665.6261926981285 492.0973639637624Q1672.1525639668423 492.0973639637624 1676.3614074789105 495.6402512239212Q1680.5702509909788 499.18313848408 1680.5702509909788 505.33657425172424L1680.5702509909788 505.33657425172424Q1680.5702509909788 516.8442982847213 1670.9005662132522 524.5960290569485Q1661.204243185449 532.3743980792519 1647.2191618953486 532.7473335803213L1647.2191618953486 532.7473335803213Q1647.9650328974874 540.2326818517847 1652.2804294098612 545.693523117443Q1656.595825922235 551.1810026331777 1662.3496879387337 551.1810026331777Q1668.103549955232 551.1810026331777 1672.711967218446 548.4905393754632Q1677.3203844816603 545.8000761177485 1681.1562924926593 540.8187233534651L1681.1562924926593 540.8187233534651Q1689.2010440157267 530.2699763232179 1694.9549060322252 516.8442982847213L1694.9549060322252 516.8442982847213Q1696.4999245366555 513.3813257747915 1697.3523485390995 511.86294552043785Q1698.2314107916202 510.3179270160077 1699.2703025445992 510.3179270160077Q1700.3358325476545 510.3179270160077 1700.3358325476545 511.86294552043785L1700.3358325476545 511.86294552043785Q1700.3358325476545 521.4527155479354 1688.6416407641225 540.6322556029304L1688.6416407641225 540.6322556029304Q1675.9884719778413 561.1437081617446 1657.36833517445 561.1437081617446ZM1647.2191618953486 528.1655545671836L1647.2191618953486 528.1655545671836Q1658.5137799277347 526.2476005616841 1663.7881534428582 520.866674046255Q1669.0625269579816 515.4857475308258 1669.0625269579816 506.85495450607806Q1669.0625269579816 498.22416148133027 1663.5217709420945 498.22416148133027L1663.5217709420945 498.22416148133027Q1656.808931922846 498.22416148133027 1652.200514659632 507.547549008064Q1647.5920973964178 516.8442982847213 1647.2191618953486 528.1655545671836ZM1705.1307175614031 549.8224518792822L1705.1307175614031 549.8224518792822L1705.3171853119377 555.7627816463155Q1705.3171853119377 561.1437081617446 1702.2537865531538 561.1437081617446L1702.2537865531538 561.1437081617446Q1697.6453692899397 561.1437081617446 1693.4365257778716 559.8917104081546Q1689.2010440157267 558.6397126545646 1689.2010440157267 556.4553761483014Q1689.2010440157267 554.2444013919617 1690.266574018782 541.29821185484Q1691.3321040218373 528.3520223177184 1691.3321040218373 521.8256510490047L1691.3321040218373 521.8256510490047L1691.3321040218373 510.50439476654236Q1691.3321040218373 501.31419849019056 1693.2500580273368 499.39624448469107Q1695.1680120328363 497.47829047919157 1700.042811796814 493.8288502187272Q1704.9442498108685 490.1794099582629 1707.155224567208 490.1794099582629Q1709.3395610734715 490.1794099582629 1709.925602575152 490.95191921047797Q1710.5116440768322 491.7244284626931 1710.5116440768322 493.8288502187272L1710.5116440768322 493.8288502187272Q1710.5116440768322 503.97802349782876 1706.6757360658332 513.0083902737223L1706.6757360658332 513.0083902737223Q1705.7167590630836 523.9300728050389 1705.7167590630836 528.1655545671836L1705.7167590630836 528.1655545671836Q1706.4626300652221 526.9934715638228 1713.761510586151 515.1128120297565Q1721.0603911070796 503.23215249569006 1726.1216586215921 497.66475822972626Q1731.209564386181 492.0973639637624 1735.231940147715 492.0973639637624Q1739.280954159325 492.0973639637624 1742.4242676683377 494.78782722147696Q1745.5942194274273 497.47829047919157 1745.5942194274273 501.50066624072525L1745.5942194274273 501.50066624072525Q1745.5942194274273 509.94499151493835 1743.7828184222333 526.3275153119132Q1741.944779166963 542.7366773589646 1741.944779166963 547.0520738713385Q1741.944779166963 551.3674703837123 1743.1168621703239 551.3674703837123L1743.1168621703239 551.3674703837123Q1746.3667286796424 551.1810026331777 1752.1205906961407 543.2161658603395Q1757.8744527126394 535.2513290875013 1763.5217617288324 522.7846280517545Q1769.1957089951018 510.3179270160077 1770.4477067486916 510.3179270160077Q1771.6730662522052 510.3179270160077 1771.6730662522052 511.86294552043785L1771.6730662522052 511.86294552043785Q1771.6730662522052 517.2172337857907 1766.1323102363178 528.9114255693223L1766.1323102363178 528.9114255693223Q1750.9751459428564 561.1437081617446 1740.6128666631441 561.1437081617446L1740.6128666631441 561.1437081617446Q1733.1275183916807 561.1437081617446 1729.2916103806817 558.0803094029607L1729.2916103806817 558.0803094029607Q1727.9596978768625 556.7217586490651 1727.9596978768625 551.0744496328721Q1727.9596978768625 545.4271406166793 1728.9985896298413 532.6674188300922Q1730.0641196328968 519.9076970435052 1730.0641196328968 513.5677935253264Q1730.0641196328968 507.25452825722374 1727.8531448765568 507.25452825722374Q1725.6421701202173 507.25452825722374 1716.2655060933307 520.3871855448801Q1706.8622038163678 533.5198428325364 1706.2761623146876 537.1692830930008L1706.2761623146876 537.1692830930008Q1705.1307175614031 543.882122112249 1705.1307175614031 549.8224518792822ZM1761.3374252225692 543.5091866111798L1761.3374252225692 543.5091866111798L1762.4828699758534 522.0121187995394Q1762.4828699758534 501.50066624072525 1764.4008239813531 499.58271223522576Q1766.3187779868524 497.66475822972626 1771.1935777508304 493.9087649689564Q1776.0950157648847 490.1794099582629 1778.3059905212242 490.1794099582629Q1780.5169652775642 490.1794099582629 1781.0763685291683 490.95191921047797Q1781.6624100308488 491.7244284626931 1781.6624100308488 494.0153179692619L1781.6624100308488 494.0153179692619Q1781.6624100308488 502.2731754929403 1778.0129697703844 510.69086251707705L1778.0129697703844 510.69086251707705Q1775.136038762135 528.3520223177184 1775.136038762135 539.6732786001807Q1775.136038762135 550.9678966325666 1778.7854790225995 550.9678966325666L1778.7854790225995 550.9678966325666Q1783.1807902852026 550.9678966325666 1789.1477583023118 543.2960806105687Q1795.088088069345 535.6242645885707 1801.0284178363784 520.4937385451856L1801.0284178363784 520.4937385451856Q1802.759904091343 501.31419849019056 1803.798795844322 499.76917998576045Q1804.8643258473774 498.22416148133027 1809.0731693594455 494.2017857197966Q1813.3086511215904 490.1794099582629 1816.079029129534 490.1794099582629Q1818.8760453875545 490.1794099582629 1818.8760453875545 497.47829047919157L1818.8760453875545 497.47829047919157Q1818.8760453875545 499.39624448469107 1817.8105153844988 504.9370005005785Q1816.744985381444 510.50439476654236 1815.4130728776247 513.0083902737223L1815.4130728776247 513.0083902737223Q1813.3086511215904 518.362678539075 1813.3086511215904 546.1730116188178L1813.3086511215904 546.1730116188178Q1813.3086511215904 551.3674703837123 1814.454095874875 551.3674703837123L1814.454095874875 551.3674703837123Q1817.7039623841936 551.1810026331777 1823.4578244006918 543.2161658603395Q1829.2116864171905 535.2513290875013 1834.88563368346 522.7846280517545Q1840.532942699653 510.3179270160077 1841.7849404532428 510.3179270160077Q1843.0369382068327 510.3179270160077 1843.0369382068327 511.86294552043785L1843.0369382068327 511.86294552043785Q1843.0369382068327 517.2172337857907 1837.469543940869 528.9114255693223L1837.469543940869 528.9114255693223Q1822.3123796474076 561.1437081617446 1811.9501003676949 561.1437081617446L1811.9501003676949 561.1437081617446Q1804.4913903463082 561.1437081617446 1800.6554823353088 558.0803094029607L1800.6554823353088 558.0803094029607Q1799.2969315814137 556.7217586490651 1799.2969315814137 549.8224518792822Q1799.2969315814137 542.9231451094993 1799.8829730830937 534.4788198352862L1799.8829730830937 534.4788198352862Q1793.7295373154495 547.5315623727133 1787.6027397978817 554.3243161421908Q1781.4759422803143 561.1437081617446 1773.8840410085452 561.1437081617446Q1766.3187779868524 561.1437081617446 1763.8147824796727 557.1213324002108Q1761.3374252225692 553.0989566386772 1761.3374252225692 543.5091866111798ZM1859.712482754648 501.50066624072525L1859.712482754648 501.50066624072525L1860.1120565057938 498.623735232476Q1860.1120565057938 495.16076272254634 1856.1695954944892 495.16076272254634Q1852.2271344831845 495.16076272254634 1848.6043324727968 500.24866848713526Q1844.9548922123324 505.33657425172424 1844.9548922123324 508.58644076104287Q1844.9548922123324 511.86294552043785 1845.3278277134016 513.7808995259373Q1845.7274014645475 515.6988535314368 1846.2068899659218 516.9242130349505Q1846.6863784672971 518.1762107885404 1847.8318232205813 519.9076970435052Q1848.977267973866 521.63918329847 1849.5633094755465 522.4116925506851L1849.5633094755465 522.4116925506851L1851.6677312315808 525.0755175583233Q1852.9996437353996 526.9934715638228 1853.58568523708 527.5795130655033L1853.58568523708 527.5795130655033Q1863.548390765647 519.3216555418248 1877.373642555289 509.17248226272324L1877.373642555289 509.17248226272324Q1878.1195135574278 508.58644076104287 1879.0784905601774 508.58644076104287L1879.0784905601774 508.58644076104287Q1880.9964445656772 508.58644076104287 1880.9964445656772 510.69086251707705Q1880.9964445656772 512.8219225231876 1879.2915965607888 513.967367276472L1879.2915965607888 513.967367276472Q1867.0113632755763 521.8256510490047 1856.0630424941835 531.0424855754329L1856.0630424941835 531.0424855754329Q1860.2985242563284 537.1692830930008 1860.2985242563284 544.4681636139294Q1860.2985242563284 551.7404058847817 1854.7311299903647 556.9348646496762Q1849.1637357244006 562.1026851644942 1840.532942699653 562.1026851644942Q1831.9021496749049 562.1026851644942 1831.9021496749049 553.8448276408159L1831.9021496749049 553.8448276408159Q1831.9021496749049 547.9044978737827 1844.5553184611865 535.6242645885707L1844.5553184611865 535.6242645885707Q1843.5963414584369 534.4788198352862 1841.1189842013334 531.8949095778771Q1838.6149886941532 529.310999320468 1837.3629909405633 527.7659808160379Q1836.1376314370498 526.2476005616841 1834.406145182085 523.7436050545042L1834.406145182085 523.7436050545042Q1831.3427464233012 518.9487200407555 1831.3427464233012 513.3813257747915L1831.3427464233012 513.3813257747915Q1831.3427464233012 502.06006949232926 1838.6149886941532 495.0808479723172Q1845.913869215082 488.0749882022287 1854.1450884886842 488.0749882022287L1854.1450884886842 488.0749882022287Q1859.3395472535783 488.0749882022287 1862.2164782618277 490.8453662101725Q1865.093409270077 493.6423824681926 1865.093409270077 496.5193134764418L1865.093409270077 496.5193134764418Q1865.093409270077 503.019046495079 1862.030010511293 503.019046495079L1862.030010511293 503.019046495079Q1859.712482754648 503.019046495079 1859.712482754648 501.50066624072525ZM1847.4322494694359 539.2737048490349L1847.4322494694359 539.2737048490349Q1839.760433447438 546.945520871033 1839.760433447438 551.6604911345526Q1839.760433447438 556.3488231479957 1844.5553184611865 556.3488231479957L1844.5553184611865 556.3488231479957Q1847.4322494694359 556.3488231479957 1849.3502034749351 554.0579336414269L1849.3502034749351 554.0579336414269Q1853.58568523708 548.3040716249284 1847.4322494694359 539.2737048490349ZM1968.2633518159043 497.66475822972626L1968.2633518159043 497.66475822972626L1968.2633518159043 465.05954013623466Q1964.6405498055167 464.2870308840196 1957.7146047856575 462.6620976293603Q1950.8152980158745 461.037164374701 1947.1658577554101 460.2646551224859L1947.1658577554101 460.2646551224859Q1936.2441752240932 457.9471273658407 1929.9042717059144 457.9471273658407L1929.9042717059144 457.9471273658407Q1917.8371444213137 457.9471273658407 1917.8371444213137 464.6599663850889L1917.8371444213137 464.6599663850889Q1917.8371444213137 472.1453146565523 1922.9250501859021 477.33977342144675Q1927.9863177004152 482.50759393626487 1932.035331712025 482.50759393626487Q1936.0577074735586 482.50759393626487 1939.2276592326482 480.4031721802307Q1942.370972741661 478.2987504241965 1944.8749682488412 478.2987504241965L1944.8749682488412 478.2987504241965Q1948.1248347581597 478.2987504241965 1948.1248347581597 481.6551699338207Q1948.1248347581597 485.0115894434448 1945.1679889996815 487.116011199479Q1942.1845049911265 489.22043295551316 1935.871239723024 489.22043295551316L1935.871239723024 489.22043295551316Q1925.6954281938463 489.22043295551316 1918.6096536735283 480.4031721802307Q1911.4972409031345 471.58591140494826 1911.4972409031345 462.36907687852005Q1911.4972409031345 453.1522423520919 1915.7327226652794 448.5704633389542Q1919.9415661773476 443.9620460757401 1926.2814696955268 443.9620460757401L1926.2814696955268 443.9620460757401Q1940.8525924873072 443.9620460757401 1969.6219025697999 453.1522423520919L1969.6219025697999 453.1522423520919Q1971.9127920763688 441.08511506749085 1978.2526955945475 441.08511506749085L1978.2526955945475 441.08511506749085Q1981.1296266027969 441.08511506749085 1981.1296266027969 456.80168261255625L1981.1296266027969 456.80168261255625Q1999.7231251561118 462.55554462905474 2013.148803194608 462.55554462905474L2013.148803194608 462.55554462905474Q2021.779596219356 462.55554462905474 2028.3059674880694 456.98815036309094L2028.3059674880694 456.98815036309094Q2030.2239214935692 455.4697701087371 2031.6623869976936 455.4697701087371Q2033.1008525018185 455.4697701087371 2033.1008525018185 456.80168261255625L2033.1008525018185 456.80168261255625Q2033.1008525018185 461.9961413774507 2025.4290364798205 466.09843188921354Q2017.7572204578225 470.2273606510528 2007.0220056770402 470.2273606510528Q1996.2867908962587 470.2273606510528 1981.1296266027969 467.53689739333817L1981.1296266027969 467.53689739333817Q1981.5025621038665 494.0153179692619 1981.5025621038665 503.97802349782876Q1981.5025621038665 513.967367276472 1980.836605851957 521.0531417967896Q1980.1706496000472 528.1655545671836 1977.853121843402 535.9172853394108Q1975.5622323368332 543.6956543617143 1971.8328773261399 548.970027876838Q1968.0768840653698 554.2444013919617 1961.470598046427 557.680735651815Q1954.837673777408 561.1437081617446 1946.1269660024311 561.1437081617446Q1937.3896199773778 561.1437081617446 1930.3837602072892 557.1213324002108Q1923.4045386872774 553.0989566386772 1923.4045386872774 544.6546313644641L1923.4045386872774 544.6546313644641Q1923.4045386872774 539.4601725995697 1926.0683636949154 536.1037530899455Q1928.7588269526302 532.7473335803213 1933.2606912155386 532.7473335803213Q1937.7891937285233 532.7473335803213 1937.7891937285233 534.8783935864319L1937.7891937285233 534.8783935864319Q1937.7891937285233 535.8373705891817 1936.6171107251628 538.6077485971255Q1935.471665971878 541.3781266050692 1935.471665971878 544.1751428630891Q1935.471665971878 546.945520871033 1939.0145532320373 550.2220256304279Q1942.5840787422724 553.4718921397466 1949.2969177615207 553.4718921397466L1949.2969177615207 553.4718921397466Q1968.2633518159043 553.4718921397466 1968.2633518159043 497.66475822972626ZM2043.8360672826 561.1437081617446L2043.8360672826 561.1437081617446Q2036.350719011137 561.1437081617446 2032.514811000138 558.0803094029607L2032.514811000138 558.0803094029607Q2031.1828984963188 556.7217586490651 2031.1828984963188 551.2609173834069Q2031.1828984963188 545.8000761177485 2031.5558339973884 536.5832415913203L2031.5558339973884 536.5832415913203Q2026.5744812331047 549.0499426270671 2021.6996814691267 555.0968253944059Q2016.7982434550725 561.1437081617446 2009.1264274330745 561.1437081617446Q2001.4546114110765 561.1437081617446 1995.7007493945782 553.9513806411214Q1989.9468873780795 546.7590531204983 1989.9468873780795 531.3088680761966Q1989.9468873780795 515.8853212819715 1998.6842334031328 503.97802349782876Q2007.3949411781098 492.0973639637624 2021.5931284688215 492.0973639637624L2021.5931284688215 492.0973639637624Q2027.7199259863894 492.0973639637624 2035.3917420083874 500.14211548682977L2035.3917420083874 500.14211548682977Q2036.9367605128175 498.0376937307956 2040.8792215241222 495.0808479723172Q2044.79504428535 492.0973639637624 2047.59206054337 492.0973639637624Q2050.362438551314 492.0973639637624 2050.362438551314 499.39624448469107L2050.362438551314 499.39624448469107Q2050.362438551314 501.31419849019056 2049.296908548258 506.85495450607806Q2048.258016795279 512.4223487720419 2046.8994660413844 514.9263442792218L2046.8994660413844 514.9263442792218Q2045.194618036496 519.3216555418248 2045.194618036496 546.1730116188178L2045.194618036496 546.1730116188178Q2045.194618036496 551.3674703837123 2046.3400627897802 551.3674703837123L2046.3400627897802 551.3674703837123Q2049.589929299099 551.1810026331777 2055.3437913155976 543.2161658603395Q2061.0976533320954 535.2513290875013 2066.771600598365 522.7846280517545Q2072.4189096145583 510.3179270160077 2073.6709073681486 510.3179270160077Q2074.922905121738 510.3179270160077 2074.922905121738 511.86294552043785L2074.922905121738 511.86294552043785Q2074.922905121738 517.2172337857907 2069.355510855775 528.9114255693223L2069.355510855775 528.9114255693223Q2054.1983465623125 561.1437081617446 2043.8360672826 561.1437081617446ZM2020.4476837155369 499.76917998576045L2020.4476837155369 499.76917998576045Q2015.0667572001078 499.76917998576045 2009.0198744327693 507.7340167585986Q2002.9996299155066 515.6988535314368 2002.9996299155066 526.4340683122189Q2002.9996299155066 537.1692830930008 2006.14294342452 544.0685898627837Q2009.312895183609 550.9678966325666 2014.5073539485036 550.9678966325666L2014.5073539485036 550.9678966325666Q2020.820619216606 550.9678966325666 2033.1008525018185 519.3216555418248L2033.1008525018185 519.3216555418248Q2033.287320252353 517.803275287471 2033.5803410031933 514.0472820267012Q2033.8733617540336 510.3179270160077 2034.0598295045681 508.3999730105082L2034.0598295045681 508.3999730105082Q2032.3283432496034 505.33657425172424 2028.0129467372292 502.53955799370414Q2023.6975502248554 499.76917998576045 2020.4476837155369 499.76917998576045ZM2077.400262378842 561.1437081617446L2077.400262378842 561.1437081617446Q2073.1914188667733 561.1437081617446 2069.6485316066146 560.0781781586893Q2066.079006096379 559.0392864057103 2065.333135094241 558.0803094029607L2065.333135094241 558.0803094029607Q2063.4151810887415 555.7627816463155 2063.4151810887415 534.185799084446Q2063.4151810887415 512.6088165225765 2068.2100661024897 475.60828716648194L2068.2100661024897 475.60828716648194Q2072.2324418640237 445.1074908290245 2086.990032406339 445.1074908290245L2086.990032406339 445.1074908290245Q2090.4530049162686 445.1074908290245 2091.971385170623 448.836845839718Q2093.516403675053 452.5928391004879 2093.516403675053 456.02917336034113L2093.516403675053 456.02917336034113Q2093.516403675053 480.96257543183475 2078.3592393815916 511.86294552043785L2078.3592393815916 511.86294552043785Q2077.799836129987 527.7659808160379 2077.799836129987 539.5667255998751Q2077.799836129987 551.3674703837123 2079.9042578860217 551.3674703837123L2079.9042578860217 551.3674703837123Q2083.1541243953397 551.1810026331777 2088.9079864118385 543.2161658603395Q2094.661848428337 535.2513290875013 2100.3357956946065 522.7846280517545Q2105.983104710799 510.3179270160077 2107.2351024643895 510.3179270160077Q2108.48710021798 510.3179270160077 2108.48710021798 511.86294552043785L2108.48710021798 511.86294552043785Q2108.48710021798 517.2172337857907 2102.9197059520156 528.9114255693223L2102.9197059520156 528.9114255693223Q2087.7625416585543 561.1437081617446 2077.400262378842 561.1437081617446ZM2088.721518661304 457.760659615306L2088.721518661304 457.760659615306Q2088.721518661304 451.63386209773813 2087.1765001568738 451.63386209773813L2087.1765001568738 451.63386209773813Q2081.422638140375 451.63386209773813 2078.7588131327366 499.39624448469107L2078.7588131327366 499.39624448469107Q2088.721518661304 473.104291659302 2088.721518661304 457.760659615306ZM2158.7268398620363 566.8975701782431L2158.7268398620363 566.8975701782431L2163.8946603768536 566.3115286765626Q2165.4396788812846 566.3115286765626 2165.4396788812846 567.856547180993L2165.4396788812846 567.856547180993Q2165.4396788812846 570.5470104387075 2161.7902386208198 571.8789229425265Q2158.140798360356 573.2374736964221 2153.559019347218 573.2374736964221L2153.559019347218 573.2374736964221Q2144.9282263224704 573.2374736964221 2139.0678113056656 566.3115286765626Q2133.2073962888617 559.4122219067797 2122.871755259225 540.8187233534651L2122.871755259225 540.8187233534651Q2120.3677597520455 536.7963475919314 2120.3677597520455 534.6652875858208L2120.3677597520455 534.6652875858208Q2120.3677597520455 531.7883565775717 2128.4125112751135 527.9524485665726L2128.4125112751135 527.9524485665726Q2141.46525381254 521.2396095473243 2141.46525381254 511.0904362682228L2141.46525381254 511.0904362682228Q2141.46525381254 508.2135052599735 2139.4407468067357 506.1889982541685Q2137.442878051007 504.1911294984398 2134.1663732916113 504.1911294984398L2134.1663732916113 504.1911294984398Q2129.5845942784736 504.1911294984398 2123.2446907602953 515.0062590294509Q2116.904787242116 525.8480268105384 2114.720450735853 535.3578820878067Q2112.509475979513 544.8410991149988 2112.509475979513 555.7627816463155L2112.509475979513 555.7627816463155Q2112.509475979513 561.1437081617446 2109.4460772207294 561.1437081617446L2109.4460772207294 561.1437081617446Q2105.0241277080495 561.1437081617446 2101.0017519465164 559.8917104081546Q2096.9793761849824 558.6397126545646 2096.9793761849824 556.641843898836Q2096.9793761849824 554.6173368930309 2098.4977564393366 538.4212808465907Q2100.042774943766 522.1985865500741 2100.2292426943013 515.1128120297565L2100.2292426943013 515.1128120297565Q2101.0017519465164 475.98122266755126 2104.837659957515 455.28330235820243L2104.837659957515 455.28330235820243Q2105.3970632091196 453.5518161032376 2110.1120334726384 449.3163343410929Q2114.8003654860822 445.1074908290245 2117.677296494331 445.1074908290245Q2120.55422750258 445.1074908290245 2120.4743127523516 452.2998183496477Q2120.3677597520455 459.4921458702708 2117.304360993262 483.0936354379453Q2114.2409622344776 506.66848675554337 2113.4684529822625 526.2476005616841L2113.4684529822625 526.2476005616841Q2116.904787242116 513.967367276472 2124.4966885138847 503.019046495079Q2132.0619515355775 492.0973639637624 2139.7337675575754 492.0973639637624L2139.7337675575754 492.0973639637624Q2152.786510095003 492.0973639637624 2152.786510095003 504.7505327500439L2152.786510095003 504.7505327500439Q2152.786510095003 513.194858024257 2147.8051573307193 520.0142500438108Q2142.79716631636 526.8070038132881 2134.3794792922226 531.0424855754329L2134.3794792922226 531.0424855754329Q2132.647993037258 531.7883565775717 2132.647993037258 532.7473335803213Q2132.647993037258 533.7063105830712 2133.2073962888617 534.6652875858208L2133.2073962888617 534.6652875858208Q2145.3011618235396 555.9758876469264 2153.7454870977526 564.6066806716742L2153.7454870977526 564.6066806716742Q2156.036376604321 566.8975701782431 2158.7268398620363 566.8975701782431Z " fill="#800020" transform="matrix(0.40407497511196744,0,0,0.40407497511196744,0,98.67471886443997)"/></g></svg>